<svg width="50" height="50" fill="none" xmlns="http://www.w3.org/2000/svg"><g stroke="#00C4F4" stroke-width="1.5" stroke-linecap="round" stroke-linejoin="round"><path d="M37.584 28.23a4.184 4.184 0 0 0-1.25 3.395c.188 2.25 2.25 3.896 4.5 3.896h3.958V38c0 4.312-3.52 7.832-7.833 7.832H13.042c-4.312 0-7.833-3.52-7.833-7.833V23.98c0-4.313 3.52-7.834 7.833-7.834H36.96c4.313 0 7.833 3.52 7.833 7.833v3h-4.208c-1.167 0-2.23.459-3 1.25Z"/><path d="M5.209 25.854v-9.52c0-2.48 1.52-4.688 3.833-5.563l16.542-6.25c2.583-.98 5.354.937 5.354 3.708v7.917m16.06 12.958v4.292c0 1.146-.916 2.083-2.083 2.125H40.83c-2.25 0-4.312-1.646-4.5-3.896a4.184 4.184 0 0 1 1.25-3.396 4.152 4.152 0 0 1 3-1.25h4.334c1.166.042 2.083.98 2.083 2.125ZM14.584 25h14.583"/></g></svg>