<svg width="50" height="50" fill="none" xmlns="http://www.w3.org/2000/svg"><g stroke="#00C4F4" stroke-width="1.5" stroke-miterlimit="10" stroke-linecap="round" stroke-linejoin="round"><path d="M40.208 16.5v10.73c0 6.416-3.666 9.166-9.166 9.166H12.729c-.937 0-1.833-.083-2.666-.27a8.103 8.103 0 0 1-1.48-.397c-3.125-1.166-5.02-3.875-5.02-8.5V16.5c0-6.417 3.666-9.167 9.166-9.167h18.313c4.666 0 8.02 1.98 8.916 6.5.146.834.25 1.688.25 2.667Z"/><path d="M46.46 22.75v10.73c0 6.416-3.666 9.166-9.166 9.166H18.98c-1.542 0-2.937-.208-4.146-.666-2.479-.917-4.166-2.813-4.77-5.854.833.187 1.729.27 2.666.27h18.313c5.5 0 9.166-2.75 9.166-9.166V16.5c0-.979-.083-1.854-.25-2.666 3.959.833 6.5 3.625 6.5 8.916Z"/><path d="M21.871 27.375a5.5 5.5 0 1 0 0-11 5.5 5.5 0 0 0 0 11ZM9.959 17.292v9.167m23.836-9.167v9.167"/></g></svg>