<svg width="50" height="50" fill="none" xmlns="http://www.w3.org/2000/svg"><path d="M4.166 4.167h3.625c2.25 0 4.02 1.937 3.833 4.166l-1.729 20.75c-.291 3.396 2.396 6.313 5.813 6.313h22.187c3 0 5.625-2.459 5.854-5.438l1.125-15.625c.25-3.458-2.375-6.27-5.854-6.27H12.124m21.73 37.77a2.604 2.604 0 1 0 0-5.208 2.604 2.604 0 0 0 0 5.208Zm-16.666 0a2.604 2.604 0 1 0 0-5.208 2.604 2.604 0 0 0 0 5.208Zm1.562-29.166h25" stroke="#00C4F4" stroke-width="1.5" stroke-miterlimit="10" stroke-linecap="round" stroke-linejoin="round"/></svg>