<svg width="22" height="22" fill="none" xmlns="http://www.w3.org/2000/svg"><path d="M19.988 9.205h-.738v-.038H11v3.667h5.18A5.498 5.498 0 0 1 5.5 11 5.5 5.5 0 0 1 11 5.5a5.47 5.47 0 0 1 3.649 1.393L17.242 4.3A9.124 9.124 0 0 0 11 1.834a9.167 9.167 0 1 0 8.988 7.37Z" fill="#FFC107"/><path d="m2.89 6.734 3.012 2.208A5.498 5.498 0 0 1 11 5.5a5.47 5.47 0 0 1 3.649 1.393L17.24 4.3A9.124 9.124 0 0 0 11 1.834a9.161 9.161 0 0 0-8.11 4.9Z" fill="#FF3D00"/><path d="M11 20.166a9.12 9.12 0 0 0 6.146-2.38l-2.837-2.4A5.459 5.459 0 0 1 11 16.5a5.497 5.497 0 0 1-5.171-3.642l-2.99 2.303A9.158 9.158 0 0 0 11 20.166Z" fill="#4CAF50"/><path d="M19.988 9.205h-.738v-.039H11v3.667h5.18a5.518 5.518 0 0 1-1.873 2.553h.002l2.837 2.4c-.201.183 3.02-2.203 3.02-6.786a9.22 9.22 0 0 0-.178-1.795Z" fill="#1976D2"/></svg>