<svg width="109" height="109" fill="none" xmlns="http://www.w3.org/2000/svg"><g clip-path="url(#a)"><path d="M107.369 67.684c-7.28 29.197-36.855 46.965-66.058 39.685C12.12 100.09-5.651 70.516 1.632 41.322c7.277-29.2 36.852-46.97 66.046-39.69 29.201 7.278 46.971 36.855 39.69 66.053l.001-.001Z" fill="#F7931A"/><path d="M78.535 46.735c1.085-7.253-4.438-11.151-11.99-13.752l2.45-9.824-5.98-1.49-2.385 9.565a248.135 248.135 0 0 0-4.792-1.128l2.402-9.629-5.978-1.49-2.45 9.821c-1.302-.296-2.58-.589-3.82-.897L46 27.88l-8.248-2.06-1.591 6.388s4.437 1.017 4.344 1.08c2.422.604 2.86 2.207 2.787 3.478l-2.79 11.192c.166.043.383.104.621.2-.2-.05-.411-.104-.632-.156L36.58 63.68c-.296.736-1.047 1.84-2.74 1.421.06.087-4.348-1.085-4.348-1.085l-2.97 6.846 7.784 1.94c1.448.363 2.867.743 4.264 1.1l-2.475 9.938 5.974 1.49 2.452-9.832c1.632.443 3.215.852 4.766 1.237l-2.443 9.785 5.982 1.49 2.474-9.918c10.2 1.93 17.869 1.152 21.096-8.072 2.602-7.427-.129-11.71-5.495-14.503 3.908-.902 6.852-3.472 7.637-8.781l-.002-.001Zm-13.666 19.16c-1.848 7.427-14.353 3.413-18.408 2.406l3.285-13.165C53.8 56.148 66.8 58.15 64.87 65.896Zm1.85-19.267c-1.686 6.755-12.094 3.323-15.47 2.481l2.977-11.94c3.376.842 14.25 2.413 12.494 9.459Z" fill="#fff"/></g><defs><clipPath id="a"><path fill="#fff" d="M0 0h109v109H0z"/></clipPath></defs></svg>