<svg width="145" height="112" fill="none" xmlns="http://www.w3.org/2000/svg"><g clip-path="url(#a)"><path d="M26.28 111.755v-7.433c0-2.844-1.741-4.706-4.73-4.706-1.495 0-3.12.491-4.238 2.108-.87-1.357-2.119-2.108-3.99-2.108-1.249 0-2.497.376-3.483 1.732v-1.486H7.227v11.893h2.612v-6.567c0-2.108 1.117-3.103 2.858-3.103 1.742 0 2.613 1.111 2.613 3.103v6.567h2.612v-6.567c0-2.108 1.248-3.103 2.858-3.103 1.742 0 2.612 1.111 2.612 3.103v6.567h2.888Zm38.746-11.893H60.79v-3.594h-2.612v3.594H55.81v2.352h2.366v5.456c0 2.728 1.117 4.33 4.107 4.33 1.117 0 2.365-.375 3.236-.866l-.755-2.237c-.755.491-1.625.621-2.25.621-1.247 0-1.74-.751-1.74-1.978v-5.326h4.237v-2.352h.014Zm22.174-.26c-1.495 0-2.496.751-3.12 1.732v-1.487h-2.612v11.893h2.612v-6.697c0-1.977.87-3.103 2.496-3.103.493 0 1.117.13 1.625.246l.755-2.483c-.523-.1-1.263-.1-1.756-.1Zm-33.507 1.241c-1.248-.866-2.99-1.24-4.862-1.24-2.989 0-4.977 1.486-4.977 3.838 0 1.978 1.495 3.103 4.107 3.464l1.248.13c1.364.245 2.118.621 2.118 1.241 0 .866-1.001 1.487-2.742 1.487-1.742 0-3.12-.621-3.991-1.241l-1.248 1.977c1.364.996 3.236 1.487 5.108 1.487 3.483 0 5.485-1.617 5.485-3.84 0-2.107-1.625-3.218-4.106-3.593l-1.248-.13c-1.118-.13-1.988-.376-1.988-1.112 0-.866.87-1.356 2.249-1.356 1.495 0 2.99.62 3.744.996l1.103-2.108Zm69.496-1.24c-1.495 0-2.496.75-3.12 1.731v-1.487h-2.612v11.893h2.612v-6.697c0-1.977.871-3.103 2.496-3.103.493 0 1.117.13 1.625.246l.755-2.454c-.508-.13-1.248-.13-1.756-.13Zm-33.377 6.205c0 3.594 2.496 6.192 6.356 6.192 1.742 0 2.99-.375 4.238-1.357l-1.248-2.107c-1.002.751-1.989 1.111-3.12 1.111-2.12 0-3.614-1.486-3.614-3.839 0-2.237 1.495-3.723 3.614-3.839 1.117 0 2.118.375 3.12 1.111l1.248-2.107c-1.248-.996-2.496-1.356-4.238-1.356-3.86-.015-6.356 2.597-6.356 6.191Zm24.162 0v-5.946h-2.612v1.486c-.871-1.111-2.119-1.731-3.744-1.731-3.367 0-5.979 2.597-5.979 6.191s2.612 6.192 5.979 6.192c1.741 0 2.989-.621 3.744-1.732v1.487h2.612v-5.947Zm-9.592 0c0-2.107 1.364-3.839 3.613-3.839 2.119 0 3.614 1.617 3.614 3.839 0 2.107-1.495 3.839-3.614 3.839-2.235-.129-3.613-1.746-3.613-3.839Zm-31.258-6.206c-3.483 0-5.979 2.483-5.979 6.192 0 3.724 2.496 6.192 6.11 6.192 1.74 0 3.482-.491 4.86-1.617l-1.247-1.862c-1.001.751-2.25 1.241-3.483 1.241-1.625 0-3.236-.75-3.613-2.843h8.837v-.996c.116-3.824-2.133-6.307-5.485-6.307Zm0 2.237c1.625 0 2.743.996 2.99 2.844h-6.226c.246-1.603 1.364-2.844 3.236-2.844Zm64.896 3.969V95.157h-2.612v6.191c-.871-1.111-2.119-1.731-3.744-1.731-3.367 0-5.979 2.597-5.979 6.191s2.612 6.192 5.979 6.192c1.741 0 2.989-.621 3.744-1.732v1.487h2.612v-5.947Zm-9.592 0c0-2.107 1.364-3.839 3.613-3.839 2.119 0 3.613 1.617 3.613 3.839 0 2.107-1.494 3.839-3.613 3.839-2.249-.129-3.613-1.746-3.613-3.839Zm-87.447 0v-5.946h-2.613v1.486c-.87-1.111-2.118-1.731-3.744-1.731-3.366 0-5.978 2.597-5.978 6.191S31.258 112 34.624 112c1.742 0 2.99-.621 3.744-1.732v1.487h2.613v-5.947Zm-9.709 0c0-2.107 1.364-3.839 3.614-3.839 2.118 0 3.613 1.617 3.613 3.839 0 2.107-1.495 3.839-3.613 3.839-2.25-.129-3.614-1.746-3.614-3.839Z" fill="#fff"/><path d="M92.062 9.54h-39.24v70.116h39.24V9.54Z" fill="#FF5A00"/><path d="M55.434 44.598c0-14.245 6.734-26.889 17.066-35.058C64.896 3.594 55.304 0 44.84 0 20.056 0 0 19.946 0 44.598c0 24.651 20.055 44.598 44.84 44.598 10.464 0 20.056-3.594 27.66-9.54-10.347-8.054-17.066-20.813-17.066-35.058Z" fill="#EB001B"/><path d="M145 44.598c0 24.651-20.055 44.598-44.841 44.598-10.463 0-20.055-3.594-27.659-9.54 10.463-8.184 17.066-20.813 17.066-35.058 0-14.245-6.734-26.889-17.066-35.058C80.09 3.594 89.682 0 100.145 0 124.945 0 145 20.076 145 44.598Z" fill="#F79E1B"/></g><defs><clipPath id="a"><path fill="#fff" d="M0 0h145v112H0z"/></clipPath></defs></svg>