<svg width="217" height="70" fill="none" xmlns="http://www.w3.org/2000/svg"><g clip-path="url(#a)"><path d="M94.033 68.99H76.455L87.45 1.23h17.577L94.033 68.99Zm63.724-66.105C154.289 1.514 148.79 0 141.99 0c-17.359 0-29.584 9.227-29.659 22.418-.144 9.733 8.753 15.138 15.407 18.383 6.8 3.316 9.112 5.48 9.112 8.437-.069 4.54-5.495 6.632-10.556 6.632-7.018 0-10.779-1.08-16.494-3.605l-2.314-1.082-2.46 15.21c4.123 1.873 11.719 3.534 19.605 3.607 18.444 0 30.452-9.084 30.595-23.141.07-7.714-4.628-13.625-14.756-18.455-6.148-3.1-9.913-5.19-9.913-8.363.072-2.884 3.185-5.838 10.125-5.838 5.714-.145 9.913 1.225 13.094 2.595l1.59.72 2.391-14.633Zm23.363 42.1c1.448-3.893 7.018-18.96 7.018-18.96-.073.145 1.445-3.964 2.313-6.487l1.229 5.839s3.328 16.22 4.051 19.608H181.12Zm21.699-43.756h-13.597c-4.193 0-7.379 1.224-9.188 5.622l-26.111 62.138h18.445s3.037-8.363 3.689-10.164h22.57c.504 2.379 2.097 10.164 2.097 10.164H217L202.819 1.23Zm-141.047 0L44.557 47.436l-1.881-9.372C39.493 27.251 29.512 15.502 18.373 9.661L34.14 68.918h18.59l27.63-67.69H61.772Z" fill="#00579F"/><path d="M28.572 1.229H.288L0 2.598c22.062 5.623 36.673 19.177 42.676 35.47L36.528 6.924c-1.012-4.328-4.123-5.554-7.956-5.696Z" fill="#FAA61A"/></g><defs><clipPath id="a"><path fill="#fff" d="M0 0h217v70H0z"/></clipPath></defs></svg>