<svg width="62" height="62" fill="none" xmlns="http://www.w3.org/2000/svg"><path d="m35.468 9.068 4.547 9.093c.62 1.266 2.273 2.48 3.668 2.712l8.24 1.37c5.27.878 6.51 4.701 2.713 8.473l-6.406 6.407c-1.085 1.085-1.68 3.177-1.344 4.675l1.834 7.931c1.447 6.278-1.885 8.706-7.44 5.425l-7.724-4.572c-1.395-.827-3.694-.827-5.115 0l-7.724 4.572c-5.528 3.281-8.886.827-7.44-5.425l1.834-7.93c.336-1.499-.258-3.591-1.343-4.676l-6.407-6.407c-3.771-3.772-2.557-7.595 2.713-8.474l8.24-1.369c1.37-.232 3.023-1.446 3.643-2.712l4.547-9.093c2.48-4.935 6.51-4.935 8.964 0Z" stroke="#00C4F4" stroke-width="1.5" stroke-linecap="round" stroke-linejoin="round"/></svg>