<svg width="61" height="61" fill="none" xmlns="http://www.w3.org/2000/svg"><g stroke="#00C4F4" stroke-width="1.5"><path d="m12.505 51.545 4.499 3.482c.584.585 1.88.864 2.77.864h5.515c1.754 0 3.635-1.296 4.067-3.05l3.482-10.599c.737-2.033-.584-3.786-2.77-3.786h-5.82c-.865 0-1.602-.738-1.45-1.754l.738-4.652c.28-1.296-.585-2.77-1.881-3.202-1.17-.432-2.618.152-3.203 1.017l-5.947 8.87" stroke-miterlimit="10"/><path d="M5.083 51.545V37.312c0-2.033.864-2.77 2.897-2.77h1.449c2.033 0 2.897.737 2.897 2.77v14.233c0 2.033-.864 2.77-2.897 2.77H7.98c-2.033 0-2.897-.711-2.897-2.77Z" stroke-linecap="round" stroke-linejoin="round"/><path d="m48.494 9.455-4.499-3.482c-.585-.585-1.88-.864-2.77-.864h-5.516c-1.754 0-3.634 1.296-4.067 3.05L28.16 18.757c-.737 2.034.585 3.788 2.77 3.788h5.821c.864 0 1.602.737 1.449 1.753l-.737 4.652c-.28 1.296.584 2.77 1.88 3.202 1.17.432 2.619-.152 3.203-1.017l5.948-8.87" stroke-miterlimit="10"/><path d="M55.915 9.455V23.69c0 2.033-.864 2.77-2.898 2.77H51.57c-2.034 0-2.898-.737-2.898-2.77V9.455c0-2.033.864-2.77 2.898-2.77h1.448c2.034 0 2.898.712 2.898 2.77Z" stroke-linecap="round" stroke-linejoin="round"/></g></svg>