<svg width="67" height="67" fill="none" xmlns="http://www.w3.org/2000/svg"><path d="M33.947 30.346a5.06 5.06 0 0 0-.922 0c-6.644-.224-11.92-5.668-11.92-12.368 0-6.84 5.527-12.395 12.395-12.395 6.84 0 12.395 5.556 12.395 12.395-.028 6.7-5.304 12.144-11.948 12.367ZM19.988 40.647c-6.756 4.522-6.756 11.892 0 16.387 7.677 5.137 20.267 5.137 27.944 0 6.756-4.523 6.756-11.892 0-16.387-7.65-5.109-20.24-5.109-27.945 0Z" stroke="#00C4F4" stroke-width="1.5" stroke-linecap="round" stroke-linejoin="round"/></svg>