<svg width="42" height="42" fill="none" xmlns="http://www.w3.org/2000/svg"><path d="M20.125 38.5c-2.683 0-4.958-.933-6.825-2.8-1.867-1.867-2.8-4.142-2.8-6.825V10.5c0-1.925.685-3.573 2.056-4.944C13.927 4.186 15.575 3.5 17.5 3.5c1.925 0 3.573.685 4.944 2.056C23.814 6.927 24.5 8.575 24.5 10.5v16.625c0 1.225-.423 2.26-1.269 3.106-.846.846-1.881 1.269-3.106 1.269-1.225 0-2.26-.423-3.106-1.269-.846-.846-1.269-1.881-1.269-3.106V10.5h2.625v16.625c0 .496.168.912.504 1.248.336.336.751.503 1.246.502.496 0 .912-.168 1.248-.504.336-.336.503-.751.502-1.246V10.5c0-1.225-.423-2.26-1.269-3.106-.846-.846-1.881-1.269-3.106-1.269-1.225 0-2.26.423-3.106 1.269-.846.846-1.269 1.881-1.269 3.106v18.375c0 1.925.685 3.573 2.056 4.944 1.371 1.37 3.019 2.056 4.944 2.056 1.925 0 3.573-.685 4.944-2.056 1.37-1.371 2.056-3.019 2.056-4.944V10.5h2.625v18.375c0 2.683-.933 4.958-2.8 6.825-1.867 1.867-4.142 2.8-6.825 2.8Z" fill="url(#a)"/><defs><linearGradient id="a" x1="13.835" y1="3.5" x2="30.591" y2="5.061" gradientUnits="userSpaceOnUse"><stop stop-color="#00A6C2"/><stop offset="1" stop-color="#1544DF"/></linearGradient></defs></svg>