<svg width="708" height="440" fill="none" xmlns="http://www.w3.org/2000/svg"><path d="M244.836 92.965a3.047 3.047 0 0 1 2.795 1.895 3.04 3.04 0 0 1-2.234 4.134 3.044 3.044 0 0 1-1.733-5.804 3.045 3.045 0 0 1 1.172-.225Z" fill="#DEDEDE"/><path d="M223.677 340.303a3.041 3.041 0 0 1 4.688.452 3.035 3.035 0 0 1 0 3.385 3.041 3.041 0 0 1-5.572-1.693c0-.803.318-1.574.884-2.144Zm283.907-224.572a3.043 3.043 0 1 0 .001-6.087 3.043 3.043 0 0 0-.001 6.087Zm-224.745 44.01a3.043 3.043 0 1 0 .001-6.087 3.043 3.043 0 0 0-.001 6.087Zm-123.698 16.101a3.043 3.043 0 1 0 0-6.086 3.043 3.043 0 0 0 0 6.086Zm56.025 150.085a3.05 3.05 0 0 1 2.157-.896 3.043 3.043 0 0 1 2.157.896 3.05 3.05 0 1 1-4.314 0Zm-45.665-187.564a3.042 3.042 0 1 0 .001-6.085 3.042 3.042 0 0 0-.001 6.085Z" style="mix-blend-mode:color-dodge" fill="#DEDEDE"/><path d="M195.265 109.703a3.038 3.038 0 0 1-2.812-1.878 3.043 3.043 0 1 1 2.812 1.878Zm80.171 68.846a3.043 3.043 0 1 0 4.142-4.459 3.043 3.043 0 0 0-4.142 4.459Zm-19.144 121.956a3.048 3.048 0 0 1 2.812 1.879 3.049 3.049 0 0 1-.66 3.316 3.047 3.047 0 0 1-3.317.66 3.045 3.045 0 0 1 1.165-5.855Z" fill="#DEDEDE"/><path d="M209.969 312.102a3.045 3.045 0 0 1 4.29 4.313 3.053 3.053 0 0 1-2.175.959 3.043 3.043 0 0 1-2.115-5.272Zm-67.671 42.529a3.042 3.042 0 1 0 0-6.086 3.044 3.044 0 1 0 0 6.086ZM279.727 198.58a3.047 3.047 0 0 1 .669 3.318 3.04 3.04 0 0 1-2.814 1.884 3.04 3.04 0 0 1-2.145-5.202 3.044 3.044 0 0 1 4.29 0Zm-144.045-15.287a3.092 3.092 0 0 0-4.314 0 3.09 3.09 0 0 0 0 4.313 3.06 3.06 0 0 0 2.142.932 3.052 3.052 0 0 0 2.172-.861 3.088 3.088 0 0 0 0-4.384Zm125.641 23.84a3.092 3.092 0 0 1 0 4.313 3.038 3.038 0 0 1-2.157.893 3.056 3.056 0 0 1-2.818-1.882 3.056 3.056 0 0 1 0-2.334c.154-.37.378-.706.662-.99a3.09 3.09 0 0 1 4.313 0Zm19.365 43.128a3.09 3.09 0 0 1 4.313 0 3.035 3.035 0 0 1 .896 2.157 3.034 3.034 0 0 1-.896 2.156 3.045 3.045 0 0 1-3.324.661 3.045 3.045 0 0 1-1.65-1.65 3.038 3.038 0 0 1 0-2.334 3.06 3.06 0 0 1 .661-.99Zm-.106 139.958a3.045 3.045 0 0 0-2.877 1.861 3.037 3.037 0 0 0 .661 3.342 3.05 3.05 0 0 0 2.168.882 3.043 3.043 0 0 0 .048-6.085Z" style="mix-blend-mode:color-dodge" fill="#DEDEDE"/><path d="M220.108 193.261a3.064 3.064 0 0 1 2.193 5.235c-.43.43-.979.723-1.576.841a3.067 3.067 0 0 1-3.66-3.033 3.043 3.043 0 0 1 3.043-3.043Z" fill="#DEDEDE"/><path d="M592.521 327.085a3.05 3.05 0 0 1 .813 2.132 3.046 3.046 0 0 1-5.828 1.167 3.055 3.055 0 0 1-.033-2.376 3.047 3.047 0 0 1 4.062-1.629c.373.167.708.407.986.706Zm-35.899-108.827a3.065 3.065 0 0 0-2.193 5.235 3.066 3.066 0 0 0 4.729-.48 3.058 3.058 0 0 0 .507-1.713 3.039 3.039 0 0 0-3.043-3.042Zm7.429 117.956a3.043 3.043 0 1 0 0-6.086 3.043 3.043 0 0 0 0 6.086Zm-15.314-96.081a3.044 3.044 0 1 0 0-6.088 3.044 3.044 0 0 0 0 6.088Z" style="mix-blend-mode:color-dodge" fill="#DEDEDE"/><path d="M142.353 148.354a3.043 3.043 0 1 0 .001-6.087 3.043 3.043 0 0 0-.001 6.087Z" fill="#DEDEDE"/><path d="M317.01 434.737a3.05 3.05 0 0 1 .896 2.157 3.038 3.038 0 0 1-.896 2.156 3.038 3.038 0 0 1-2.157.893 3.056 3.056 0 0 1-2.818-1.882 3.056 3.056 0 0 1 0-2.334 3.062 3.062 0 0 1 2.818-1.886 3.04 3.04 0 0 1 2.157.896ZM111.974 328.153a3.043 3.043 0 1 0 0-6.086 3.043 3.043 0 0 0 0 6.086Z" style="mix-blend-mode:color-dodge" fill="#DEDEDE"/><path d="M514.175 88.92a3.044 3.044 0 0 0-2.152 5.194 3.041 3.041 0 0 0 3.317.66 3.037 3.037 0 0 0 1.647-1.647 3.041 3.041 0 0 0-2.812-4.207Z" fill="#DEDEDE"/><path d="M162.083 149.554a3.043 3.043 0 1 0 .001-6.087 3.043 3.043 0 0 0-.001 6.087Zm381.155-18.586a3.02 3.02 0 0 0 0 4.289 3.035 3.035 0 0 0 2.157.896 3.04 3.04 0 1 0 0-6.08c-.401 0-.798.079-1.168.232-.37.154-.706.38-.989.663ZM194.049 414.816a3.046 3.046 0 0 1 2.152 5.195 3.046 3.046 0 0 1-4.683-.461 3.04 3.04 0 0 1 .379-3.842 3.042 3.042 0 0 1 2.152-.892Zm343.627-256.533a3.092 3.092 0 0 0-4.314 0 3.05 3.05 0 0 0-.896 2.156 3.04 3.04 0 0 0 .896 2.157 3.05 3.05 0 0 0 2.157.896 3.04 3.04 0 0 0 2.157-.896 3.09 3.09 0 0 0 0-4.313ZM167.738 395.098a3.037 3.037 0 0 1 2.794 1.894 3.044 3.044 0 0 1-2.233 4.134 3.038 3.038 0 0 1-3.117-1.298 3.035 3.035 0 0 1-.278-2.858 3.05 3.05 0 0 1 2.834-1.872Zm403.536-240.337a3.043 3.043 0 1 0 .001-6.087 3.043 3.043 0 0 0-.001 6.087Z" style="mix-blend-mode:color-dodge" fill="#DEDEDE"/><path d="M152.642 275.505a3.048 3.048 0 0 1 2.812 1.879 3.049 3.049 0 0 1-.66 3.316 3.047 3.047 0 0 1-3.317.66 3.047 3.047 0 0 1-1.647-3.976 3.033 3.033 0 0 1 1.647-1.647c.37-.153.765-.232 1.165-.232Z" fill="#DEDEDE"/><path d="M241.479 237.467a3.092 3.092 0 0 1 4.314 0 3.048 3.048 0 0 1 0 4.313 3.05 3.05 0 0 1-4.314 0 3.09 3.09 0 0 1 0-4.313Zm-73.56 43.93a3.043 3.043 0 1 0 .001-6.087 3.043 3.043 0 0 0-.001 6.087Zm65.68-55.767a3.042 3.042 0 1 1 4.436 4.165 3.042 3.042 0 0 1-4.436-4.165Zm-77.514 30.106a3.043 3.043 0 1 0 0 6.085 3.043 3.043 0 0 0 0-6.085Z" style="mix-blend-mode:color-dodge" fill="#DEDEDE"/><path d="M221.688 210.752a3.045 3.045 0 0 1 2.812 1.878 3.04 3.04 0 0 1-.66 3.316 3.036 3.036 0 0 1-3.316.66 3.05 3.05 0 0 1-1.879-2.812 3.041 3.041 0 0 1 3.043-3.042ZM445.811 61.098a3.044 3.044 0 0 0-4.688 3.837 3.044 3.044 0 1 0 4.688-3.837Z" fill="#DEDEDE"/><path d="M455.261 366.108a3.038 3.038 0 0 1-2.812-1.878 3.04 3.04 0 0 1 .66-3.316 3.036 3.036 0 0 1 3.316-.66 3.037 3.037 0 0 1 1.879 2.811 3.043 3.043 0 0 1-3.043 3.043Z" fill="#DEDEDE" style="mix-blend-mode:color-dodge"/><path d="M476.417 118.697a3.091 3.091 0 0 1-4.313 0 3.045 3.045 0 0 1-.661-3.323 3.045 3.045 0 0 1 1.65-1.651 3.057 3.057 0 0 1 2.335 0c.37.154.706.378.989.662a3.09 3.09 0 0 1 0 4.312Zm-61.319 185.738a3.034 3.034 0 0 1-.663-3.324 3.054 3.054 0 0 1 4.976-.989 3.051 3.051 0 0 1-3.324 4.976 3.035 3.035 0 0 1-.989-.663Z" fill="#DEDEDE"/><path d="M484.927 133.049a3.05 3.05 0 0 1-2.157.896 3.034 3.034 0 0 1-2.156-.896 3.048 3.048 0 0 1 2.156-5.206 3.052 3.052 0 0 1 2.82 4.217 3.05 3.05 0 0 1-.663.989Zm-60.268 147.378a3.05 3.05 0 0 0-2.157-.896 3.043 3.043 0 0 0-2.157.896 3.05 3.05 0 1 0 4.314 0Zm19.146-121.956a3.048 3.048 0 0 1-2.812-1.879 3.048 3.048 0 0 1 .66-3.316 3.043 3.043 0 1 1 2.152 5.195Z" fill="#DEDEDE" style="mix-blend-mode:color-dodge"/><path d="M490.223 146.874a3.043 3.043 0 1 1-4.142-4.459 3.043 3.043 0 0 1 4.142 4.459Zm-69.879 113.523a3.093 3.093 0 0 1 0-4.313 3.06 3.06 0 0 1 2.157-.893 3.049 3.049 0 0 1 2.157 5.206 3.09 3.09 0 0 1-4.314 0Z" fill="#DEDEDE"/><path d="M438.772 251.842a3.09 3.09 0 0 1 0-4.313 3.065 3.065 0 0 1 2.157-.893 3.056 3.056 0 0 1 2.157.893 3.052 3.052 0 0 1 0 4.313 3.094 3.094 0 0 1-4.314 0Z" fill="#DEDEDE" style="mix-blend-mode:color-dodge"/><path d="M419.411 208.715a3.06 3.06 0 0 1-2.156.893 3.057 3.057 0 0 1-2.157-.893 3.06 3.06 0 0 1-.893-2.157 3.056 3.056 0 0 1 .893-2.156 3.05 3.05 0 0 1 4.313 4.313Z" fill="#DEDEDE"/><path d="M479.989 265.715a3.043 3.043 0 1 0 .002-6.086 3.043 3.043 0 0 0-.002 6.086Z" fill="#DEDEDE" style="mix-blend-mode:color-dodge"/><path d="M458.615 221.509c-.283.284-.62.508-.99.661a3.034 3.034 0 0 1-2.334 0 3.048 3.048 0 0 1 1.167-5.867 3.051 3.051 0 0 1 2.157 5.206Zm7.884 11.837a3.042 3.042 0 0 1-5.114-2.187 3.038 3.038 0 0 1 1.814-2.827 3.047 3.047 0 0 1 3.387.638 3.045 3.045 0 0 1-.087 4.376Z" fill="#DEDEDE"/><path d="M478.408 248.225a3.043 3.043 0 1 0 0-6.086 3.043 3.043 0 0 0 0 6.086Z" fill="#DEDEDE" style="mix-blend-mode:color-dodge"/><path d="M356.028 395.722c97.526 0 176.587-79.049 176.587-176.561s-79.061-176.56-176.587-176.56c-97.526 0-176.587 79.048-176.587 176.56s79.061 176.561 176.587 176.561Z" fill="#032B5C"/><path d="M356.026 382.88A163.858 163.858 0 0 1 265 355.271a163.821 163.821 0 0 1-60.343-73.522 163.787 163.787 0 0 1-9.319-94.651 163.808 163.808 0 0 1 44.846-83.875 163.86 163.86 0 0 1 178.557-35.495 163.835 163.835 0 0 1 73.523 60.345 163.793 163.793 0 0 1 27.6 91.017 163.967 163.967 0 0 1-48.045 115.769 164.012 164.012 0 0 1-115.793 48.021Zm0-323.268a159.517 159.517 0 0 0-88.62 26.865 159.478 159.478 0 0 0-58.756 71.567 159.46 159.46 0 0 0 34.56 173.805 159.508 159.508 0 0 0 81.666 43.652 159.525 159.525 0 0 0 92.159-9.071 159.493 159.493 0 0 0 71.585-58.737 159.463 159.463 0 0 0 26.883-88.603 159.638 159.638 0 0 0-46.783-112.664 159.68 159.68 0 0 0-112.694-46.742v-.072Z" fill="#CCC" style="mix-blend-mode:color-dodge"/><path d="M422.811 211.302a55.97 55.97 0 0 0 5.399-55.262 55.975 55.975 0 0 0-44.867-32.719V94.953H357.99v28.009h-17.278v-28.01h-25.425v28.01h-43.134v31.699h30.17v129h-30.17v31.699h43.134v27.985h25.353V315.36h17.278v27.985h25.425V315.36h10.664a56.02 56.02 0 0 0 53.941-41.099 56.013 56.013 0 0 0-25.185-62.959h.048Zm-45.722-56.641a24.325 24.325 0 0 1 24.323 24.319 24.321 24.321 0 0 1-24.323 24.319h-43.134v-48.638h43.134Zm16.918 129h-59.909v-48.663h59.909a24.35 24.35 0 0 1 23.583 24.332 24.348 24.348 0 0 1-23.583 24.331Z" fill="#CCC" style="mix-blend-mode:color-dodge"/><path style="mix-blend-mode:screen" d="M378.144 98.978c0 54.653-59.693 98.979-133.309 98.979-73.615 0-133.236-44.326-133.236-98.978C111.599 44.325 171.196 0 244.835 0c73.64 0 133.309 44.302 133.309 98.978Z" fill="url(#a)"/><path style="mix-blend-mode:screen" d="M244.834 115.559c135.219 0 244.835-7.424 244.835-16.58 0-9.158-109.616-16.58-244.835-16.58C109.616 82.398 0 89.82 0 98.978c0 9.156 109.616 16.58 244.834 16.58Z" fill="url(#b)"/><path style="mix-blend-mode:screen" d="M369.399 98.978c0 22.642-55.763 40.996-124.61 40.996-68.847 0-124.61-18.354-124.61-40.996 0-22.642 55.763-41.02 124.61-41.02 68.847 0 124.61 18.378 124.61 41.02Z" fill="url(#c)"/><path style="mix-blend-mode:screen" d="M244.837 158.926c30.095 0 54.492-26.84 54.492-59.948 0-33.108-24.397-59.947-54.492-59.947-30.096 0-54.493 26.839-54.493 59.947 0 33.108 24.397 59.948 54.493 59.948Z" fill="url(#d)"/><path style="mix-blend-mode:screen" d="M596.187 341.021c0 54.653-59.693 98.979-133.309 98.979-73.615 0-133.212-44.326-133.212-98.979 0-54.652 59.668-98.954 133.308-98.954 73.64 0 133.213 44.302 133.213 98.954Z" fill="url(#e)"/><path style="mix-blend-mode:screen" d="M462.879 357.602c135.219 0 244.835-7.423 244.835-16.58 0-9.157-109.616-16.581-244.835-16.581-135.218 0-244.834 7.424-244.834 16.581s109.616 16.58 244.834 16.58Z" fill="url(#f)"/><path style="mix-blend-mode:screen" d="M587.442 341.022c0 22.642-55.763 41.019-124.609 41.019-68.847 0-124.61-18.377-124.61-41.019 0-22.643 55.787-40.996 124.61-40.996 68.822 0 124.609 18.353 124.609 40.996Z" fill="url(#g)"/><path style="mix-blend-mode:screen" d="M462.88 400.969c30.096 0 54.493-26.839 54.493-59.947 0-33.109-24.397-59.948-54.493-59.948-30.096 0-54.493 26.839-54.493 59.948 0 33.108 24.397 59.947 54.493 59.947Z" fill="url(#h)"/><defs><radialGradient id="a" cx="0" cy="0" r="1" gradientUnits="userSpaceOnUse" gradientTransform="matrix(132.834 0 0 99.1002 246.103 87.479)"><stop stop-color="#008DD3"/><stop offset=".04" stop-color="#007FBE"/><stop offset=".21" stop-color="#00466A"/><stop offset=".23" stop-color="#003F5F"/><stop offset=".3" stop-color="#002B42"/><stop offset=".39" stop-color="#001B2A"/><stop offset=".48" stop-color="#000F17"/><stop offset=".58" stop-color="#00060A"/><stop offset=".72" stop-color="#000102"/><stop offset="1"/></radialGradient><radialGradient id="b" cx="0" cy="0" r="1" gradientUnits="userSpaceOnUse" gradientTransform="matrix(244.957 0 0 16.4308 241.374 178.731)"><stop stop-color="#008DD3"/><stop offset=".04" stop-color="#007FBE"/><stop offset=".21" stop-color="#00466A"/><stop offset=".23" stop-color="#003F5F"/><stop offset=".3" stop-color="#002B42"/><stop offset=".39" stop-color="#001B2A"/><stop offset=".48" stop-color="#000F17"/><stop offset=".58" stop-color="#00060A"/><stop offset=".72" stop-color="#000102"/><stop offset="1"/></radialGradient><radialGradient id="c" cx="0" cy="0" r="1" gradientUnits="userSpaceOnUse" gradientTransform="matrix(124.589 0 0 40.9866 248.344 107.367)"><stop stop-color="#00466A"/><stop offset=".01" stop-color="#004568"/><stop offset=".12" stop-color="#003048"/><stop offset=".24" stop-color="#001E2E"/><stop offset=".37" stop-color="#001119"/><stop offset=".52" stop-color="#00070B"/><stop offset=".7" stop-color="#000203"/><stop offset="1"/></radialGradient><radialGradient id="d" cx="0" cy="0" r="1" gradientUnits="userSpaceOnUse" gradientTransform="matrix(54.524 0 0 59.8783 242.249 102.297)"><stop stop-color="#008DD3"/><stop offset=".04" stop-color="#007FBE"/><stop offset=".21" stop-color="#00466A"/><stop offset=".23" stop-color="#003F5F"/><stop offset=".3" stop-color="#002B42"/><stop offset=".39" stop-color="#001B2A"/><stop offset=".48" stop-color="#000F17"/><stop offset=".58" stop-color="#00060A"/><stop offset=".72" stop-color="#000102"/><stop offset="1"/></radialGradient><radialGradient id="e" cx="0" cy="0" r="1" gradientUnits="userSpaceOnUse" gradientTransform="matrix(132.834 0 0 99.1002 463.391 329.883)"><stop stop-color="#008DD3"/><stop offset=".04" stop-color="#007FBE"/><stop offset=".21" stop-color="#00466A"/><stop offset=".23" stop-color="#003F5F"/><stop offset=".3" stop-color="#002B42"/><stop offset=".39" stop-color="#001B2A"/><stop offset=".48" stop-color="#000F17"/><stop offset=".58" stop-color="#00060A"/><stop offset=".72" stop-color="#000102"/><stop offset="1"/></radialGradient><radialGradient id="f" cx="0" cy="0" r="1" gradientUnits="userSpaceOnUse" gradientTransform="matrix(244.957 0 0 16.4308 459.699 418.461)"><stop stop-color="#008DD3"/><stop offset=".04" stop-color="#007FBE"/><stop offset=".21" stop-color="#00466A"/><stop offset=".23" stop-color="#003F5F"/><stop offset=".3" stop-color="#002B42"/><stop offset=".39" stop-color="#001B2A"/><stop offset=".48" stop-color="#000F17"/><stop offset=".58" stop-color="#00060A"/><stop offset=".72" stop-color="#000102"/><stop offset="1"/></radialGradient><radialGradient id="g" cx="0" cy="0" r="1" gradientUnits="userSpaceOnUse" gradientTransform="matrix(124.589 0 0 40.9866 466.166 349.116)"><stop stop-color="#00466A"/><stop offset=".01" stop-color="#004568"/><stop offset=".12" stop-color="#003048"/><stop offset=".24" stop-color="#001E2E"/><stop offset=".37" stop-color="#001119"/><stop offset=".52" stop-color="#00070B"/><stop offset=".7" stop-color="#000203"/><stop offset="1"/></radialGradient><radialGradient id="h" cx="0" cy="0" r="1" gradientUnits="userSpaceOnUse" gradientTransform="matrix(54.524 0 0 59.8783 460.564 344.218)"><stop stop-color="#008DD3"/><stop offset=".04" stop-color="#007FBE"/><stop offset=".21" stop-color="#00466A"/><stop offset=".23" stop-color="#003F5F"/><stop offset=".3" stop-color="#002B42"/><stop offset=".39" stop-color="#001B2A"/><stop offset=".48" stop-color="#000F17"/><stop offset=".58" stop-color="#00060A"/><stop offset=".72" stop-color="#000102"/><stop offset="1"/></radialGradient></defs></svg>