<svg width="15" height="16" fill="none" xmlns="http://www.w3.org/2000/svg"><path d="M12.652 15.5H5.348A2.348 2.348 0 0 1 3 13.152V5.848A2.348 2.348 0 0 1 5.348 3.5h7.304A2.348 2.348 0 0 1 15 5.848v7.304a2.348 2.348 0 0 1-2.348 2.348Z" fill="url(#a)"/><path d="M4.221 2.083H12A2.378 2.378 0 0 0 9.761.5H2.374A2.374 2.374 0 0 0 0 2.874v7.387A2.379 2.379 0 0 0 1.583 12.5V4.721A2.638 2.638 0 0 1 4.22 2.083Z" fill="url(#b)"/><defs><linearGradient id="a" x1="5.079" y1="3.5" x2="15.321" y2="5.235" gradientUnits="userSpaceOnUse"><stop stop-color="#00A6C2"/><stop offset="1" stop-color="#1544DF"/></linearGradient><linearGradient id="b" x1="2.079" y1=".5" x2="12.321" y2="2.235" gradientUnits="userSpaceOnUse"><stop stop-color="#00A6C2"/><stop offset="1" stop-color="#1544DF"/></linearGradient></defs></svg>