<svg width="17" height="17" fill="none" xmlns="http://www.w3.org/2000/svg"><g fill="red"><path d="m14.358 5.479.5 2.89a1.181 1.181 0 0 1-1.162 1.381h-3.67a.59.59 0 0 0-.583.687l.47 2.865c.076.465.055.941-.064 1.397a1.158 1.158 0 0 1-.773.806l-.103.033a.953.953 0 0 1-.704-.048.895.895 0 0 1-.482-.58l-.337-1.299a5.404 5.404 0 0 0-.464-1.189c-.294-.55-.75-.992-1.222-1.399l-1.02-.878a1.182 1.182 0 0 1-.405-.996l.575-6.654A1.18 1.18 0 0 1 6.09 1.417h3.292c2.466 0 4.57 1.718 4.976 4.062Z"/><path fill-rule="evenodd" clip-rule="evenodd" d="M2.102 10.281a.532.532 0 0 0 .553-.485l.687-7.959a.876.876 0 1 0-1.748-.075V9.75a.531.531 0 0 0 .508.53Z"/></g></svg>