<svg width="17" height="17" fill="none" xmlns="http://www.w3.org/2000/svg"><path d="m14.358 11.521.5-2.89a1.18 1.18 0 0 0-1.162-1.381h-3.67a.59.59 0 0 1-.582-.687l.47-2.865a3.388 3.388 0 0 0-.065-1.397 1.158 1.158 0 0 0-.773-.806l-.103-.033a.953.953 0 0 0-.704.048.896.896 0 0 0-.482.58L7.45 3.389a5.403 5.403 0 0 1-.464 1.189c-.294.55-.75.992-1.222 1.399l-1.02.878a1.183 1.183 0 0 0-.405.996l.575 6.654a1.18 1.18 0 0 0 1.176 1.078h3.292c2.466 0 4.57-1.718 4.976-4.062Z" fill="#0ECA80"/><path fill-rule="evenodd" clip-rule="evenodd" d="M2.102 6.719a.531.531 0 0 1 .553.485l.687 7.959a.876.876 0 1 1-1.748.075V7.25a.531.531 0 0 1 .508-.53Z" fill="#0ECA80"/></svg>