<svg width="23" height="23" fill="none" xmlns="http://www.w3.org/2000/svg"><path d="m20.663 10.291-1.304-1.514c-.249-.288-.45-.824-.45-1.208V5.94c0-1.016-.834-1.85-1.85-1.85H15.43c-.374 0-.92-.2-1.207-.45l-1.515-1.303c-.66-.565-1.744-.565-2.415 0L8.79 3.65c-.288.24-.834.44-1.208.44H5.923c-1.015 0-1.85.834-1.85 1.85v1.64c0 .374-.2.91-.44 1.198l-1.294 1.524c-.556.661-.556 1.734 0 2.396l1.294 1.523c.24.288.44.824.44 1.198v1.639c0 1.016.835 1.85 1.85 1.85h1.658c.374 0 .92.2 1.208.45l1.514 1.303c.661.566 1.744.566 2.415 0l1.514-1.303c.288-.25.824-.45 1.208-.45h1.629c1.016 0 1.85-.834 1.85-1.85v-1.63c0-.373.2-.92.45-1.207l1.303-1.514c.556-.661.556-1.754-.01-2.415Zm-5.175-.604-4.63 4.63a.718.718 0 0 1-1.015 0l-2.32-2.32a.723.723 0 0 1 0-1.016.723.723 0 0 1 1.017 0l1.81 1.811 4.122-4.12a.723.723 0 0 1 1.016 0 .723.723 0 0 1 0 1.015Z" fill="#C7BF00"/></svg>